<svg xmlns="http://www.w3.org/2000/svg" xmlns:xlink="http://www.w3.org/1999/xlink" viewBox="0 0 194.4 255.6"><defs><style>.a{fill:url(#a);}.b,.i{fill:none;}.b{stroke-miterlimit:10;stroke-width:15px;stroke:url(#b);}.c{fill:#31a8db;}.d{fill:#2788aa;}.e{fill:#84c83f;}.f{fill:#6ea033;}.g{fill:#e12838;}.h{fill:#b51f32;}</style><linearGradient id="a" x1="97.3" y1="8.5" x2="97.3" y2="249.3" gradientUnits="userSpaceOnUse"><stop offset="0" stop-color="#4d4d4d"/><stop offset="1" stop-color="#303030"/></linearGradient><linearGradient id="b" x1="130.9" y1="36.55" x2="187" y2="36.55" gradientUnits="userSpaceOnUse"><stop offset="0" stop-color="#4d4d4d"/><stop offset="1" stop-color="#454545"/></linearGradient></defs><title>icon</title><path class="a" d="M126.4,23.5V68.7H172V234.3H22.6V23.5H126.4m15-15H7.6V249.3H187V53.7H141.4V8.5Z"/><line class="b" x1="136.2" y1="13.8" x2="181.7" y2="59.3"/><rect class="c" x="71.5" y="86.8" width="53.2" height="70.6"/><path class="d" d="M122.2,89.3v65.6H74V89.3h48.2m5-5H69v75.6h58.2V84.3Z"/><rect class="e" x="97.7" y="145.8" width="56" height="71"/><path class="f" d="M151.2,148.3v66h-51v-66h51m5-5h-61v76h61v-76Z"/><rect class="g" x="39.7" y="131.8" width="53" height="71"/><path class="h" d="M90.2,134.3v66h-48v-66h48m5-5h-58v76h58v-76Z"/><rect class="i" width="194.4" height="255.6"/></svg>